<svg xmlns="http://www.w3.org/2000/svg" width="150" height="150" viewBox="0 0 150 150" version="1.1"><path d="" stroke="none" fill="#080404" fill-rule="evenodd"/><path d="M 56.313 2.646 C 54.664 5.162, 54.500 8.133, 54.500 35.500 C 54.500 62.867, 54.664 65.838, 56.313 68.354 C 58.768 72.102, 62.884 71.697, 64.993 67.500 C 67.218 63.071, 67.218 7.929, 64.993 3.500 C 62.884 -0.697, 58.768 -1.102, 56.313 2.646 M 84.449 3.468 C 82.294 8.626, 82.486 25.464, 84.752 30 C 86.907 34.315, 90.654 35.143, 93.552 31.945 C 95.188 30.140, 95.553 27.999, 95.832 18.562 C 96.262 4.030, 94.887 0, 89.500 0 C 86.335 0, 85.722 0.421, 84.449 3.468 M 18.073 24.635 C 16.933 26.084, 16 27.850, 16 28.558 C 16 32.962, 30.684 42.447, 39.338 43.633 C 45.295 44.449, 49 43.477, 49 41.097 C 49 36.736, 28.154 22.105, 21.823 22.022 C 20.900 22.010, 19.212 23.186, 18.073 24.635 M 111.860 30.266 C 93.073 39.791, 75.038 51.960, 71.337 57.609 C 69.321 60.685, 70.962 63, 75.157 63 C 80.240 63, 111.226 46.121, 127.750 34.351 C 133.932 29.947, 135.218 27.618, 132.800 25.200 C 130.128 22.528, 124.382 23.918, 111.860 30.266 M 4.720 46.613 C 4.324 47.009, 4 48.694, 4 50.356 C 4 54.374, 10.533 60.398, 24.191 68.973 C 37.395 77.263, 56.373 87, 59.329 87 C 60.588 87, 62.491 86.360, 63.559 85.578 C 65.475 84.175, 65.473 84.119, 63.421 81.328 C 60.217 76.971, 47.322 68.149, 28.039 57.122 C 10.827 47.279, 6.158 45.175, 4.720 46.613 M 133.138 49.719 C 124.245 55.005, 119.027 59.722, 116.955 64.349 C 114.461 69.920, 115.282 71.341, 120.649 70.736 C 125.706 70.166, 134.140 65.391, 141.181 59.112 C 145.745 55.042, 146.080 54.425, 145.801 50.612 C 145.526 46.851, 145.244 46.476, 142.500 46.219 C 140.459 46.027, 137.467 47.145, 133.138 49.719 M 85.976 65.044 C 85.046 66.782, 85.377 67.550, 88.184 70.172 C 96.160 77.623, 128.120 98.512, 138.713 103.197 C 144.004 105.538, 146 104.515, 146 99.463 C 146 96.798, 145.113 95.389, 141.348 92.076 C 135.879 87.261, 126.644 81.083, 115.500 74.783 C 94.545 62.938, 88.220 60.851, 85.976 65.044 M 20.170 83.035 C 7.960 89.146, 0.039 99.467, 4.293 103.722 C 6.400 105.829, 11.177 104.107, 20.466 97.894 C 32.019 90.167, 36.434 83.834, 32.800 80.200 C 30.873 78.273, 28.719 78.756, 20.170 83.035 M 86.114 80.363 C 83.647 83.335, 82.834 93.845, 83.167 118.442 C 83.542 146.149, 84.133 149.224, 89.195 149.810 C 91.212 150.044, 92.323 149.436, 93.687 147.354 C 95.336 144.838, 95.500 141.867, 95.500 114.500 C 95.500 87.380, 95.325 84.145, 93.727 81.706 C 91.790 78.750, 88.006 78.082, 86.114 80.363 M 69.989 88.435 C 60.254 92.025, 25.873 111.776, 19.184 117.622 C 16.094 120.323, 15.678 121.137, 16.602 122.671 C 19.103 126.822, 25.205 125.479, 42 117.082 C 61.843 107.161, 80 94.935, 80 91.494 C 80 89.583, 77.170 86.987, 75.179 87.070 C 74.255 87.109, 71.920 87.723, 69.989 88.435 M 103.160 106.330 C 101.275 108.336, 101.033 109.193, 101.895 110.804 C 103.660 114.101, 112.143 121.032, 118 123.961 C 126.399 128.162, 128.415 128.407, 131.654 125.621 C 134.136 123.486, 134.304 122.963, 133.250 120.650 C 131.920 117.729, 126.370 113.445, 117.420 108.427 C 108.901 103.651, 106.068 103.234, 103.160 106.330 M 56.448 118.055 C 54.812 119.860, 54.447 122.001, 54.168 131.438 C 53.738 145.970, 55.113 150, 60.500 150 C 63.665 150, 64.278 149.579, 65.551 146.532 C 67.706 141.374, 67.514 124.536, 65.248 120 C 63.093 115.685, 59.346 114.857, 56.448 118.055" stroke="none" fill="#040404" fill-rule="evenodd"/></svg>