<?xml version="1.0" standalone="no"?>
<!DOCTYPE svg PUBLIC "-//W3C//DTD SVG 20010904//EN"
 "http://www.w3.org/TR/2001/REC-SVG-20010904/DTD/svg10.dtd">
<svg version="1.0" xmlns="http://www.w3.org/2000/svg"
 width="36.000000pt" height="36.000000pt" viewBox="0 0 36.000000 36.000000"
 preserveAspectRatio="xMidYMid meet">

<g transform="translate(0.000000,36.000000) scale(0.100000,-0.100000)"
fill="#000000" stroke="none">
<path d="M130 275 c0 -69 3 -85 15 -85 12 0 15 16 15 85 0 69 -3 85 -15 85
-12 0 -15 -16 -15 -85z"/>
<path d="M200 320 c0 -29 4 -40 15 -40 11 0 15 11 15 40 0 29 -4 40 -15 40
-11 0 -15 -11 -15 -40z"/>
<path d="M46 303 c-12 -12 -6 -23 24 -38 36 -19 63 -9 34 12 -32 24 -51 33
-58 26z"/>
<path d="M237 269 c-62 -37 -83 -59 -55 -59 15 0 138 72 138 81 0 20 -20 14
-83 -22z"/>
<path d="M10 237 c0 -7 24 -27 53 -44 66 -40 83 -47 91 -35 3 6 -26 29 -65 51
-79 46 -79 46 -79 28z"/>
<path d="M308 232 c-24 -14 -39 -42 -23 -42 18 0 65 33 65 45 0 19 -8 19 -42
-3z"/>
<path d="M206 201 c-5 -8 122 -91 138 -91 3 0 6 6 6 14 0 8 -29 30 -64 50 -70
39 -72 40 -80 27z"/>
<path d="M38 154 c-24 -13 -39 -44 -22 -44 15 0 64 36 64 47 0 16 -8 16 -42
-3z"/>
<path d="M200 85 c0 -69 3 -85 15 -85 12 0 15 16 15 85 0 69 -3 85 -15 85 -12
0 -15 -16 -15 -85z"/>
<path d="M105 114 c-73 -44 -71 -42 -59 -53 10 -10 144 64 144 79 0 18 -24 10
-85 -26z"/>
<path d="M245 100 c-7 -11 54 -52 67 -44 14 9 9 19 -21 37 -34 20 -38 20 -46
7z"/>
<path d="M130 40 c0 -29 4 -40 15 -40 11 0 15 11 15 40 0 29 -4 40 -15 40 -11
0 -15 -11 -15 -40z"/>
</g>
</svg>
