<svg xmlns="http://www.w3.org/2000/svg" width="150" height="150" viewBox="0 0 150 150" version="1.1"><path d="M 56.313 2.646 C 54.664 5.162, 54.500 8.133, 54.500 35.500 C 54.500 62.867, 54.664 65.838, 56.313 68.354 C 58.768 72.102, 62.884 71.697, 64.993 67.500 C 67.218 63.071, 67.218 7.929, 64.993 3.500 C 62.884 -0.697, 58.768 -1.102, 56.313 2.646 M 111.860 30.266 C 93.073 39.791, 75.038 51.960, 71.337 57.609 C 69.321 60.685, 70.962 63, 75.157 63 C 80.240 63, 111.226 46.121, 127.750 34.351 C 133.932 29.947, 135.218 27.618, 132.800 25.200 C 130.128 22.528, 124.382 23.918, 111.860 30.266 M 4.720 46.613 C 4.324 47.009, 4 48.694, 4 50.356 C 4 54.374, 10.533 60.398, 24.191 68.973 C 37.395 77.263, 56.373 87, 59.329 87 C 60.588 87, 62.491 86.360, 63.559 85.578 C 65.475 84.175, 65.473 84.119, 63.421 81.328 C 60.217 76.971, 47.322 68.149, 28.039 57.122 C 10.827 47.279, 6.158 45.175, 4.720 46.613 M 85.976 65.044 C 85.046 66.782, 85.377 67.550, 88.184 70.172 C 96.160 77.623, 128.120 98.512, 138.713 103.197 C 144.004 105.538, 146 104.515, 146 99.463 C 146 96.798, 145.113 95.389, 141.348 92.076 C 135.879 87.261, 126.644 81.083, 115.500 74.783 C 94.545 62.938, 88.220 60.851, 85.976 65.044 M 86.114 80.363 C 83.647 83.335, 82.834 93.845, 83.167 118.442 C 83.542 146.149, 84.133 149.224, 89.195 149.810 C 91.212 150.044, 92.323 149.436, 93.687 147.354 C 95.336 144.838, 95.500 141.867, 95.500 114.500 C 95.500 87.380, 95.325 84.145, 93.727 81.706 C 91.790 78.750, 88.006 78.082, 86.114 80.363 M 69.989 88.435 C 60.254 92.025, 25.873 111.776, 19.184 117.622 C 16.094 120.323, 15.678 121.137, 16.602 122.671 C 19.103 126.822, 25.205 125.479, 42 117.082 C 61.843 107.161, 80 94.935, 80 91.494 C 80 89.583, 77.170 86.987, 75.179 87.070 C 74.255 87.109, 71.920 87.723, 69.989 88.435" stroke="none" fill="#fcfcfc" fill-rule="evenodd"/><path d="M 84.374 3.648 C 82.019 9.285, 82.739 28.949, 85.409 31.899 C 87.836 34.581, 91.164 34.581, 93.595 31.898 C 95.210 30.117, 95.542 27.946, 95.778 17.648 C 96.112 3.014, 95.290 0.653, 89.702 0.188 C 86.200 -0.103, 85.844 0.128, 84.374 3.648 M 18.039 24.189 C 16.918 25.392, 16 27.177, 16 28.154 C 16 33.728, 31.062 43.042, 41.324 43.813 C 47.902 44.308, 49.555 43.349, 48.612 39.589 C 47.557 35.388, 27.191 22.041, 21.789 22.010 C 20.848 22.004, 19.160 22.985, 18.039 24.189 M 131.950 50.376 C 121.294 56.641, 113.988 65.200, 115.635 69.491 C 117.282 73.783, 130.620 68.548, 140.522 59.723 C 145.781 55.035, 146.085 54.511, 145.801 50.624 C 145.526 46.850, 145.246 46.476, 142.500 46.219 C 140.406 46.023, 137.221 47.278, 131.950 50.376 M 20.400 82.866 C 8.174 88.778, -0.005 99.423, 4.340 103.768 C 5.735 105.164, 6.334 105.144, 10.466 103.566 C 20.756 99.636, 34 88.455, 34 83.697 C 34 81.020, 32.278 79, 29.997 79 C 29.116 79, 24.797 80.740, 20.400 82.866 M 103 106 C 100.495 108.505, 100.498 109.487, 103.025 113.036 C 106.700 118.197, 123.348 128, 128.437 128 C 130.237 128, 134 124.137, 134 122.290 C 134 119.584, 125.904 112.765, 117.332 108.250 C 108.285 103.485, 105.891 103.109, 103 106 M 56.405 118.102 C 54.790 119.883, 54.458 122.054, 54.222 132.352 C 53.888 146.986, 54.710 149.347, 60.298 149.812 C 63.800 150.103, 64.156 149.872, 65.626 146.352 C 67.981 140.715, 67.261 121.051, 64.591 118.101 C 62.164 115.419, 58.836 115.419, 56.405 118.102" stroke="none" fill="#fc0a0a" fill-rule="evenodd"/></svg>
